<?xml version="1.0" standalone="no"?>
<!DOCTYPE svg PUBLIC "-//W3C//DTD SVG 20010904//EN"
 "http://www.w3.org/TR/2001/REC-SVG-20010904/DTD/svg10.dtd">
<svg version="1.0" xmlns="http://www.w3.org/2000/svg"
 width="213.000000pt" height="100.000000pt" viewBox="0 0 213.000000 100.000000"
 preserveAspectRatio="xMidYMid meet">
<metadata>
Created by potrace 1.16, written by Peter Selinger 2001-2019
</metadata>
<g transform="translate(0.000000,100.000000) scale(0.100000,-0.100000)"
fill="#000000" stroke="none">
<path d="M1957 754 c-11 -11 -8 -387 3 -404 9 -13 12 -13 25 4 13 17 15 17 30
2 19 -19 29 -20 56 -6 34 18 53 70 53 145 1 112 -47 171 -107 132 -22 -14 -22
-14 -22 57 0 56 -3 71 -15 74 -9 1 -19 0 -23 -4z m121 -196 c9 -28 10 -84 4
-136 -3 -24 -45 -31 -67 -12 -16 15 -20 30 -18 78 2 73 15 102 48 102 18 0 26
-8 33 -32z"/>
<path d="M553 725 c-18 -8 -33 -19 -33 -25 0 -6 -7 -4 -16 5 -9 9 -28 15 -43
13 -14 -1 -31 1 -38 5 -17 10 -63 -39 -63 -67 0 -14 10 -30 26 -41 25 -16 26
-16 20 3 -8 25 11 33 58 25 40 -6 46 -24 21 -61 -12 -16 -12 -20 -3 -17 12 5
39 54 40 72 0 18 20 43 33 43 7 0 25 -15 39 -32 23 -30 24 -34 10 -56 -8 -12
-12 -27 -9 -32 10 -16 45 -11 52 8 4 9 10 20 15 23 5 3 11 25 13 47 3 34 0 44
-16 52 -10 6 -19 17 -19 24 0 8 -10 16 -22 20 -29 7 -27 8 -65 -9z"/>
<path d="M910 676 c0 -21 -6 -36 -15 -40 -8 -3 -15 -15 -15 -26 0 -11 7 -20
15 -20 12 0 15 -17 15 -95 0 -112 12 -145 50 -145 29 0 58 25 46 38 -5 4 -17
7 -29 7 -20 0 -21 5 -22 97 0 94 1 98 22 98 12 0 25 5 28 10 9 15 -14 40 -36
40 -16 0 -18 5 -13 26 4 17 2 29 -7 35 -27 17 -39 9 -39 -25z"/>
<path d="M77 630 c-29 -23 -38 -25 -34 -7 1 6 -5 12 -13 12 -13 0 -15 -22 -15
-140 0 -125 2 -140 18 -143 15 -3 17 7 17 97 0 107 13 141 52 141 16 0 32 -32
27 -56 -1 -5 -1 -49 0 -97 1 -86 2 -88 24 -85 21 3 22 7 22 103 0 82 3 104 18
120 14 15 21 17 35 9 14 -9 17 -30 20 -123 2 -103 4 -111 22 -111 19 0 20 7
20 105 0 114 -14 166 -48 184 -17 9 -26 6 -52 -16 -29 -24 -33 -25 -42 -10
-17 32 -44 38 -71 17z"/>
<path d="M764 632 c-6 -4 -19 -21 -27 -39 -14 -27 -15 -36 -4 -63 8 -17 30
-42 51 -56 30 -20 37 -31 34 -52 -2 -20 -10 -28 -27 -30 -13 -2 -28 1 -34 7
-18 18 -27 13 -27 -14 0 -18 8 -28 27 -36 40 -15 79 5 93 47 16 49 -1 92 -51
127 -42 29 -47 51 -17 71 13 8 23 8 38 -2 11 -6 22 -12 25 -12 10 0 5 36 -7
48 -13 13 -57 16 -74 4z"/>
<path d="M1072 633 c-26 -10 -52 -81 -52 -140 0 -107 53 -167 125 -143 27 9
35 17 35 36 0 21 -3 23 -18 15 -47 -25 -102 3 -102 51 0 28 0 28 65 28 l65 0
0 35 c0 39 -24 105 -43 117 -13 9 -55 9 -75 1z"/>
<path d="M1214 627 c-2 -7 -3 -71 -2 -143 3 -121 4 -129 23 -129 19 0 20 7 22
98 1 78 5 102 19 118 9 10 24 18 33 17 11 -2 16 5 16 22 0 18 -6 26 -23 28
-13 2 -25 -3 -28 -12 -8 -20 -24 -21 -24 -1 0 18 -29 20 -36 2z"/>
<path d="M1454 604 c4 -22 17 -86 29 -144 19 -91 25 -105 44 -108 22 -3 26 7
49 141 3 21 9 35 13 32 3 -4 13 -43 22 -88 13 -70 18 -82 36 -85 25 -4 24 -6
53 138 12 58 26 112 31 122 6 11 4 18 -7 22 -9 3 -19 4 -23 2 -4 -3 -16 -50
-26 -105 -11 -56 -22 -101 -26 -101 -3 0 -14 45 -24 101 -27 148 -47 147 -73
-5 -9 -53 -19 -96 -22 -96 -4 0 -15 46 -26 102 -16 84 -23 103 -38 106 -17 4
-18 0 -12 -34z"/>
<path d="M1786 615 c-57 -62 -44 -235 20 -264 44 -20 104 4 104 41 0 15 -4 18
-17 13 -59 -24 -103 -4 -103 47 0 28 1 28 60 28 73 0 84 13 65 78 -8 24 -21
52 -31 63 -24 27 -70 24 -98 -6z"/>
<path d="M387 543 c-36 -59 -68 -140 -61 -158 8 -21 36 -35 69 -35 22 0 26 -4
20 -17 -4 -12 -3 -14 3 -8 6 6 12 48 14 94 4 64 9 87 22 96 16 12 14 14 -14
20 -17 4 -29 12 -27 18 3 7 10 11 16 10 6 -2 11 2 11 7 0 23 -32 7 -53 -27z"/>
<path d="M646 449 c-13 -16 -21 -18 -29 -10 -21 21 -30 11 -25 -33 3 -25 1
-49 -5 -55 -6 -6 -4 -15 7 -26 9 -9 14 -21 11 -26 -12 -18 16 -49 43 -49 33 0
52 16 52 43 0 16 -3 17 -15 7 -8 -7 -15 -9 -15 -4 0 5 -5 2 -10 -6 -9 -13 -11
-13 -19 -1 -7 11 -1 18 22 30 28 14 32 22 35 61 1 31 -3 52 -16 68 l-17 22
-19 -21z"/>
</g>
</svg>
